{
  "accessors": [
    {
      "bufferView": 0,
      "componentType": 5125,
      "count": 420,
      "type": "SCALAR"
    },
    {
      "bufferView": 1,
      "componentType": 5126,
      "count": 165,
      "max": [
        238.173446655273,
        610.389404296875,
        -234.780609130859
      ],
      "min": [
        -508.237426757813,
        309.235809326172,
        -505.275939941406
      ],
      "type": "VEC3"
    },
    {
      "bufferView": 2,
      "componentType": 5126,
      "count": 165,
      "type": "VEC3"
    },
    {
      "bufferView": 3,
      "componentType": 5126,
      "count": 165,
      "type": "VEC2"
    }
  ],
  "asset": {
    "generator": "Substance Painter 7.1.0",
    "version": "2.0"
  },
  "bufferViews": [
    {
      "buffer": 0,
      "byteLength": 1680,
      "target": 34963
    },
    {
      "buffer": 0,
      "byteLength": 1980,
      "byteOffset": 1680,
      "target": 34962
    },
    {
      "buffer": 0,
      "byteLength": 1980,
      "byteOffset": 3660,
      "target": 34962
    },
    {
      "buffer": 0,
      "byteLength": 1320,
      "byteOffset": 5640,
      "target": 34962
    }
  ],
  "buffers": [
    {
      "byteLength": 6960,
      "uri": "Untitled.bin"
    }
  ],
  "images": [
    {
      "uri": "phong4SG_baseColor.png"
    },
    {
      "uri": "phong4SG_occlusionRoughnessMetallic.png"
    },
    {
      "uri": "phong4SG_normal.png"
    }
  ],
  "materials": [
    {
      "alphaMode": "BLEND",
      "name": "phong4SG",
      "normalTexture": {
        "index": 2
      },
      "occlusionTexture": {
        "index": 1
      },
      "pbrMetallicRoughness": {
        "baseColorTexture": {
          "index": 0
        },
        "metallicRoughnessTexture": {
          "index": 1
        }
      }
    }
  ],
  "meshes": [
    {
      "name": "pCube90",
      "primitives": [
        {
          "attributes": {
            "NORMAL": 2,
            "POSITION": 1,
            "TEXCOORD_0": 3
          },
          "indices": 0,
          "material": 0,
          "mode": 4
        }
      ]
    }
  ],
  "nodes": [
    {
      "children": [
        1
      ],
      "name": "cristal1.obj"
    },
    {
      "children": [
        2
      ],
      "name": "pCube90"
    },
    {
      "mesh": 0,
      "name": "pCube90"
    }
  ],
  "samplers": [
    {
      "magFilter": 9729,
      "minFilter": 9985,
      "wrapS": 10497,
      "wrapT": 10497
    }
  ],
  "scene": 0,
  "scenes": [
    {
      "name": "Scene",
      "nodes": [
        0
      ]
    }
  ],
  "textures": [
    {
      "sampler": 0,
      "source": 0
    },
    {
      "sampler": 0,
      "source": 1
    },
    {
      "sampler": 0,
      "source": 2
    }
  ]
}