# This file uses meters as units for non-parametric coordinates.

mtllib base.mtl
g default
v -517.955929 23.112524 541.465687
v 278.907428 23.112524 541.465687
v -517.955929 618.248288 541.465687
v 278.907428 618.248288 541.465687
v -517.955929 618.248288 518.265687
v 278.907428 618.248288 518.265687
v -517.955929 23.112524 518.265687
v 278.907428 23.112524 518.265687
vt 0.375000 0.000000
vt 0.625000 0.000000
vt 0.375000 0.250000
vt 0.625000 0.250000
vt 0.375000 0.500000
vt 0.625000 0.500000
vt 0.375000 0.750000
vt 0.625000 0.750000
vt 0.375000 1.000000
vt 0.625000 1.000000
vt 0.875000 0.000000
vt 0.875000 0.250000
vt 0.125000 0.000000
vt 0.125000 0.250000
vn 0.000000 0.000000 1.000000
vn 0.000000 0.000000 1.000000
vn 0.000000 0.000000 1.000000
vn 0.000000 0.000000 1.000000
vn 0.000000 1.000000 0.000000
vn 0.000000 1.000000 0.000000
vn 0.000000 1.000000 0.000000
vn 0.000000 1.000000 0.000000
vn 0.000000 0.000000 -1.000000
vn 0.000000 0.000000 -1.000000
vn 0.000000 0.000000 -1.000000
vn 0.000000 0.000000 -1.000000
vn 0.000000 -1.000000 0.000000
vn 0.000000 -1.000000 0.000000
vn 0.000000 -1.000000 0.000000
vn 0.000000 -1.000000 0.000000
vn 1.000000 0.000000 0.000000
vn 1.000000 0.000000 0.000000
vn 1.000000 0.000000 0.000000
vn 1.000000 0.000000 0.000000
vn -1.000000 0.000000 0.000000
vn -1.000000 0.000000 0.000000
vn -1.000000 0.000000 0.000000
vn -1.000000 0.000000 0.000000
s off
g pCube88
usemtl phong5SG
f 1/1/1 2/2/2 4/4/3 3/3/4
f 3/3/5 4/4/6 6/6/7 5/5/8
f 5/5/9 6/6/10 8/8/11 7/7/12
f 7/7/13 8/8/14 2/10/15 1/9/16
f 2/2/17 8/11/18 6/12/19 4/4/20
f 7/13/21 1/1/22 3/3/23 5/14/24
g default
v 236.702200 44.122965 -211.966980
v 284.505596 44.122965 -211.966980
v 236.702200 606.026969 -211.966980
v 284.505596 606.026969 -211.966980
v 236.702200 606.026969 -293.391103
v 284.505596 606.026969 -293.391103
v 236.702200 44.122965 -293.391103
v 284.505596 44.122965 -293.391103
v 284.505596 524.887099 -211.966980
v 236.702200 524.887099 -211.966980
v 236.702200 524.887099 -293.391103
v 284.505596 524.887099 -293.391103
v 284.505596 524.887099 449.180203
v 236.702200 524.887099 449.180203
v 284.505596 606.026969 449.180203
v 236.702200 606.026969 449.180203
v 284.505596 553.829909 -293.391103
v 236.702200 553.829909 -293.391103
v 236.702200 553.829909 -211.966980
v 236.702200 553.829909 449.180203
v 284.505596 553.829909 449.180203
v 284.505596 553.829909 -211.966980
v 236.702200 606.026969 -574.153025
v 284.505596 606.026969 -574.153025
v 284.505596 553.829909 -574.153025
v 236.702200 553.829909 -574.153025
vt 0.375000 0.000000
vt 0.625000 0.000000
vt 0.375000 0.250000
vt 0.625000 0.250000
vt 0.375000 0.500000
vt 0.625000 0.500000
vt 0.375000 0.750000
vt 0.625000 0.750000
vt 0.375000 1.000000
vt 0.625000 1.000000
vt 0.875000 0.000000
vt 0.875000 0.250000
vt 0.125000 0.000000
vt 0.125000 0.250000
vt 0.625000 0.217298
vt 0.375000 0.217298
vt 0.125000 0.217298
vt 0.375000 0.532701
vt 0.625000 0.532701
vt 0.875000 0.217298
vt 0.375000 0.217298
vt 0.625000 0.217298
vt 0.625000 0.250000
vt 0.375000 0.250000
vt 0.625000 0.521037
vt 0.875000 0.228963
vt 0.125000 0.228963
vt 0.375000 0.521037
vt 0.375000 0.228963
vt 0.375000 0.228963
vt 0.625000 0.228963
vt 0.625000 0.228963
vt 0.375000 0.500000
vt 0.625000 0.500000
vt 0.625000 0.521037
vt 0.375000 0.521037
vn 0.000000 0.000000 1.000000
vn 0.000000 0.000000 1.000000
vn 0.000000 0.000000 1.000000
vn 0.000000 0.000000 1.000000
vn 0.000000 1.000000 0.000000
vn 0.000000 1.000000 0.000000
vn 0.000000 1.000000 0.000000
vn 0.000000 1.000000 0.000000
vn 0.000000 0.000000 -1.000000
vn 0.000000 0.000000 -1.000000
vn 0.000000 0.000000 -1.000000
vn 0.000000 0.000000 -1.000000
vn 0.000000 -1.000000 0.000000
vn 0.000000 -1.000000 0.000000
vn 0.000000 -1.000000 0.000000
vn 0.000000 -1.000000 0.000000
vn 1.000000 0.000000 0.000000
vn 1.000000 0.000000 0.000000
vn 1.000000 0.000000 0.000000
vn 1.000000 0.000000 0.000000
vn -1.000000 0.000000 0.000000
vn -1.000000 0.000000 0.000000
vn -1.000000 0.000000 0.000000
vn -1.000000 0.000000 0.000000
vn 0.000000 0.000000 1.000000
vn 0.000000 0.000000 1.000000
vn 0.000000 0.000000 1.000000
vn 0.000000 0.000000 1.000000
vn -1.000000 0.000000 0.000000
vn -1.000000 0.000000 0.000000
vn -1.000000 0.000000 0.000000
vn -1.000000 0.000000 0.000000
vn 0.000000 0.000000 -1.000000
vn 0.000000 0.000000 -1.000000
vn 0.000000 0.000000 -1.000000
vn 0.000000 0.000000 -1.000000
vn 1.000000 0.000000 0.000000
vn 1.000000 0.000000 0.000000
vn 1.000000 0.000000 0.000000
vn 1.000000 0.000000 0.000000
vn 0.000000 -1.000000 0.000000
vn 0.000000 -1.000000 0.000000
vn 0.000000 -1.000000 0.000000
vn 0.000000 -1.000000 0.000000
vn 1.000000 0.000000 0.000000
vn 1.000000 0.000000 0.000000
vn 1.000000 0.000000 0.000000
vn 1.000000 0.000000 0.000000
vn 0.000000 1.000000 0.000000
vn 0.000000 1.000000 0.000000
vn 0.000000 1.000000 0.000000
vn 0.000000 1.000000 0.000000
vn -1.000000 0.000000 0.000000
vn -1.000000 0.000000 0.000000
vn -1.000000 0.000000 0.000000
vn -1.000000 0.000000 0.000000
vn 0.000000 0.000000 -1.000000
vn 0.000000 0.000000 -1.000000
vn -1.000000 0.000000 0.000000
vn -1.000000 0.000000 0.000000
vn 0.000000 0.000000 1.000000
vn 0.000000 0.000000 1.000000
vn 1.000000 0.000000 0.000000
vn 1.000000 0.000000 0.000000
vn 0.000000 1.000000 0.000000
vn 0.000000 1.000000 0.000000
vn 0.000000 1.000000 0.000000
vn 0.000000 1.000000 0.000000
vn 1.000000 0.000000 0.000000
vn 1.000000 0.000000 0.000000
vn 1.000000 0.000000 0.000000
vn 1.000000 0.000000 0.000000
vn 0.000000 -1.000000 0.000000
vn 0.000000 -1.000000 0.000000
vn 0.000000 -1.000000 0.000000
vn 0.000000 -1.000000 0.000000
vn -1.000000 0.000000 0.000000
vn -1.000000 0.000000 0.000000
vn -1.000000 0.000000 0.000000
vn -1.000000 0.000000 0.000000
s off
g pCube25
usemtl phong5SG
f 9/15/25 10/16/26 17/29/27 18/30/28
f 11/17/29 12/18/30 14/20/31 13/19/32
s 1
f 19/32/33 20/33/34 16/22/35 15/21/36
s off
f 15/21/37 16/22/38 10/24/39 9/23/40
s 2
f 10/16/41 16/25/42 20/34/43 17/29/44
s 3
f 15/27/45 9/15/46 18/30/47 19/31/48
s 4
f 28/44/49 29/45/50 23/37/51 24/38/52
s 3
f 26/41/53 27/43/54 11/17/55 13/28/56
s off
f 31/47/57 32/48/58 33/49/59 34/50/60
s 2
f 30/46/61 25/40/62 14/26/63 12/18/64
s off
f 18/30/65 17/29/66 21/36/67 22/35/68
s 5
f 30/46/69 12/18/70 23/37/71 29/45/72
s off
f 12/18/73 11/17/74 24/38/75 23/37/76
s 6
f 11/17/77 27/43/78 28/44/79 24/38/80
s 1
f 26/42/81 25/39/82 20/33/34 19/32/33
s 3
f 19/31/48 18/30/47 27/43/54 26/41/53
s 6
f 28/44/79 27/43/78 18/30/83 22/35/84
s 4
f 22/35/85 21/36/86 29/45/50 28/44/49
s 5
f 17/29/87 30/46/69 29/45/72 21/36/88
s 2
f 17/29/44 20/34/43 25/40/62 30/46/61
s off
f 13/19/89 14/20/90 32/48/91 31/47/92
f 14/20/93 25/39/94 33/49/95 32/48/96
f 25/39/97 26/42/98 34/50/99 33/49/100
f 26/42/101 13/19/102 31/47/103 34/50/104
g default
v -514.778975 602.685908 528.040980
v 285.221025 602.685908 528.040980
v -514.778975 648.003596 528.040980
v 285.221025 648.003596 528.040980
v -514.778975 648.003596 -871.959020
v 285.221025 648.003596 -871.959020
v -514.778975 602.685908 -871.959020
v 285.221025 602.685908 -871.959020
vt 0.375000 0.000000
vt 0.625000 0.000000
vt 0.375000 0.250000
vt 0.625000 0.250000
vt 0.375000 0.500000
vt 0.625000 0.500000
vt 0.375000 0.750000
vt 0.625000 0.750000
vt 0.375000 1.000000
vt 0.625000 1.000000
vt 0.875000 0.000000
vt 0.875000 0.250000
vt 0.125000 0.000000
vt 0.125000 0.250000
vn 0.000000 0.000000 1.000000
vn 0.000000 0.000000 1.000000
vn 0.000000 0.000000 1.000000
vn 0.000000 0.000000 1.000000
vn 0.000000 1.000000 0.000000
vn 0.000000 1.000000 0.000000
vn 0.000000 1.000000 0.000000
vn 0.000000 1.000000 0.000000
vn 0.000000 0.000000 -1.000000
vn 0.000000 0.000000 -1.000000
vn 0.000000 0.000000 -1.000000
vn 0.000000 0.000000 -1.000000
vn 0.000000 -1.000000 0.000000
vn 0.000000 -1.000000 0.000000
vn 0.000000 -1.000000 0.000000
vn 0.000000 -1.000000 0.000000
vn 1.000000 0.000000 0.000000
vn 1.000000 0.000000 0.000000
vn 1.000000 0.000000 0.000000
vn 1.000000 0.000000 0.000000
vn -1.000000 0.000000 0.000000
vn -1.000000 0.000000 0.000000
vn -1.000000 0.000000 0.000000
vn -1.000000 0.000000 0.000000
s off
g pCube89
usemtl phong5SG
f 35/51/105 36/52/106 38/54/107 37/53/108
f 37/53/109 38/54/110 40/56/111 39/55/112
f 39/55/113 40/56/114 42/58/115 41/57/116
f 41/57/117 42/58/118 36/60/119 35/59/120
f 36/52/121 42/61/122 40/62/123 38/54/124
f 41/63/125 35/51/126 37/53/127 39/64/128
g default
v 236.702258 23.112524 -566.807230
v 284.505596 23.112524 -566.807230
v 236.702258 618.248288 -566.807230
v 284.505596 618.248288 -566.807230
v 236.702258 618.248288 -864.598285
v 284.505596 618.248288 -864.598285
v 236.702258 23.112524 -864.598285
v 284.505596 23.112524 -864.598285
vt 0.375000 0.000000
vt 0.625000 0.000000
vt 0.375000 0.250000
vt 0.625000 0.250000
vt 0.375000 0.500000
vt 0.625000 0.500000
vt 0.375000 0.750000
vt 0.625000 0.750000
vt 0.375000 1.000000
vt 0.625000 1.000000
vt 0.875000 0.000000
vt 0.875000 0.250000
vt 0.125000 0.000000
vt 0.125000 0.250000
vn 0.000000 0.000000 1.000000
vn 0.000000 0.000000 1.000000
vn 0.000000 0.000000 1.000000
vn 0.000000 0.000000 1.000000
vn 0.000000 1.000000 0.000000
vn 0.000000 1.000000 0.000000
vn 0.000000 1.000000 0.000000
vn 0.000000 1.000000 0.000000
vn 0.000000 0.000000 -1.000000
vn 0.000000 0.000000 -1.000000
vn 0.000000 0.000000 -1.000000
vn 0.000000 0.000000 -1.000000
vn 0.000000 -1.000000 0.000000
vn 0.000000 -1.000000 0.000000
vn 0.000000 -1.000000 0.000000
vn 0.000000 -1.000000 0.000000
vn 1.000000 0.000000 0.000000
vn 1.000000 0.000000 0.000000
vn 1.000000 0.000000 0.000000
vn 1.000000 0.000000 0.000000
vn -1.000000 0.000000 0.000000
vn -1.000000 0.000000 0.000000
vn -1.000000 0.000000 0.000000
vn -1.000000 0.000000 0.000000
s off
g pCube77
usemtl phong5SG
f 43/65/129 44/66/130 46/68/131 45/67/132
f 45/67/133 46/68/134 48/70/135 47/69/136
f 47/69/137 48/70/138 50/72/139 49/71/140
f 49/71/141 50/72/142 44/74/143 43/73/144
f 44/66/145 50/75/146 48/76/147 46/68/148
f 49/77/149 43/65/150 45/67/151 47/78/152
g default
v -512.731723 23.112524 -845.922291
v 284.131633 23.112524 -845.922291
v -512.731723 618.248288 -845.922291
v 284.131633 618.248288 -845.922291
v -512.731723 618.248288 -869.122291
v 284.131633 618.248288 -869.122291
v -512.731723 23.112524 -869.122291
v 284.131633 23.112524 -869.122291
vt 0.375000 0.000000
vt 0.625000 0.000000
vt 0.375000 0.250000
vt 0.625000 0.250000
vt 0.375000 0.500000
vt 0.625000 0.500000
vt 0.375000 0.750000
vt 0.625000 0.750000
vt 0.375000 1.000000
vt 0.625000 1.000000
vt 0.875000 0.000000
vt 0.875000 0.250000
vt 0.125000 0.000000
vt 0.125000 0.250000
vn 0.000000 0.000000 1.000000
vn 0.000000 0.000000 1.000000
vn 0.000000 0.000000 1.000000
vn 0.000000 0.000000 1.000000
vn 0.000000 1.000000 0.000000
vn 0.000000 1.000000 0.000000
vn 0.000000 1.000000 0.000000
vn 0.000000 1.000000 0.000000
vn 0.000000 0.000000 -1.000000
vn 0.000000 0.000000 -1.000000
vn 0.000000 0.000000 -1.000000
vn 0.000000 0.000000 -1.000000
vn 0.000000 -1.000000 0.000000
vn 0.000000 -1.000000 0.000000
vn 0.000000 -1.000000 0.000000
vn 0.000000 -1.000000 0.000000
vn 1.000000 0.000000 0.000000
vn 1.000000 0.000000 0.000000
vn 1.000000 0.000000 0.000000
vn 1.000000 0.000000 0.000000
vn -1.000000 0.000000 0.000000
vn -1.000000 0.000000 0.000000
vn -1.000000 0.000000 0.000000
vn -1.000000 0.000000 0.000000
s off
g pCube76
usemtl phong5SG
f 51/79/153 52/80/154 54/82/155 53/81/156
f 53/81/157 54/82/158 56/84/159 55/83/160
f 55/83/161 56/84/162 58/86/163 57/85/164
f 57/85/165 58/86/166 52/88/167 51/87/168
f 52/80/169 58/89/170 56/90/171 54/82/172
f 57/91/173 51/79/174 53/81/175 55/92/176
g default
v -517.500350 42.585273 528.786902
v -494.281570 42.585273 528.786902
v -517.500350 628.347827 528.786902
v -494.281570 628.347827 528.786902
v -517.500350 628.347827 -741.105602
v -494.281570 628.347827 -741.105602
v -517.500350 42.585273 -741.105602
v -494.281570 42.585273 -741.105602
v -517.500350 255.475654 528.786902
v -517.500350 255.475654 -741.105602
v -494.281570 255.475654 -741.105602
v -494.281570 255.475654 528.786902
v -517.500350 628.091960 -860.497524
v -494.281570 628.091960 -860.497524
v -494.281570 255.475654 -860.497524
v -517.500350 255.475654 -860.497524
v -494.281570 255.475654 -831.799371
v -494.281570 628.091960 -831.799371
v -517.500350 628.091960 -831.799371
v -517.500350 255.475654 -831.799371
v -517.500350 43.460202 -831.799371
v -494.281570 43.460202 -831.799371
v -517.500350 43.460202 -860.497524
v -494.281570 43.460202 -860.497524
vt 0.375000 0.000000
vt 0.625000 0.000000
vt 0.375000 0.250000
vt 0.625000 0.250000
vt 0.375000 0.500000
vt 0.625000 0.500000
vt 0.375000 0.750000
vt 0.625000 0.750000
vt 0.375000 1.000000
vt 0.625000 1.000000
vt 0.875000 0.000000
vt 0.875000 0.250000
vt 0.125000 0.000000
vt 0.125000 0.250000
vt 0.375000 0.102868
vt 0.125000 0.102868
vt 0.375000 0.647132
vt 0.625000 0.647132
vt 0.875000 0.102868
vt 0.625000 0.102868
vt 0.375000 0.500000
vt 0.625000 0.500000
vt 0.625000 0.647132
vt 0.375000 0.647132
vt 0.625000 0.647132
vt 0.625000 0.500000
vt 0.375000 0.500000
vt 0.375000 0.647132
vt 0.625000 0.647132
vt 0.375000 0.647132
vt 0.375000 0.647132
vt 0.625000 0.647132
vn 0.000000 0.000000 1.000000
vn 0.000000 0.000000 1.000000
vn 0.000000 0.000000 1.000000
vn 0.000000 0.000000 1.000000
vn 0.000000 1.000000 0.000000
vn 0.000000 1.000000 0.000000
vn 0.000000 1.000000 0.000000
vn 0.000000 1.000000 0.000000
vn 0.000000 0.000000 -1.000000
vn 0.000000 0.000000 -1.000000
vn 0.000000 0.000000 -1.000000
vn 0.000000 0.000000 -1.000000
vn 0.000000 -1.000000 0.000000
vn 0.000000 -1.000000 0.000000
vn 0.000000 -1.000000 0.000000
vn 0.000000 -1.000000 0.000000
vn 1.000000 0.000000 0.000000
vn 1.000000 0.000000 0.000000
vn 1.000000 0.000000 0.000000
vn 1.000000 0.000000 0.000000
vn -1.000000 0.000000 0.000000
vn -1.000000 0.000000 0.000000
vn -1.000000 0.000000 0.000000
vn -1.000000 0.000000 0.000000
vn -1.000000 0.000000 0.000000
vn -1.000000 0.000000 0.000000
vn 0.000000 0.000000 -1.000000
vn 0.000000 0.000000 -1.000000
vn 0.000000 0.000000 -1.000000
vn 0.000000 0.000000 -1.000000
vn 1.000000 0.000000 0.000000
vn 1.000000 0.000000 0.000000
vn 0.000000 0.000000 1.000000
vn 0.000000 0.000000 1.000000
vn 0.000000 0.999996 -0.002821
vn 0.000000 0.999996 -0.002821
vn 0.000000 0.999998 -0.002143
vn 0.000000 0.999998 -0.002143
vn 1.000000 0.000000 0.000000
vn 1.000000 0.000000 0.000000
vn 1.000000 0.000000 0.000000
vn 1.000000 0.000000 0.000000
vn 0.000000 -1.000000 0.000000
vn 0.000000 -1.000000 0.000000
vn 0.000000 -1.000000 0.000000
vn 0.000000 -1.000000 0.000000
vn -1.000000 0.000000 0.000000
vn -1.000000 0.000000 0.000000
vn -1.000000 0.000000 0.000000
vn -1.000000 0.000000 0.000000
vn 1.000000 0.000000 0.000000
vn 1.000000 0.000000 0.000000
vn 0.000000 1.000000 0.000000
vn 0.000000 1.000000 0.000000
vn -1.000000 0.000000 0.000000
vn -1.000000 0.000000 0.000000
vn 0.000000 -1.000000 0.000000
vn 0.000000 -1.000000 0.000000
vn 0.000000 -1.000000 0.000000
vn 0.000000 -1.000000 0.000000
vn 0.000000 0.000000 1.000000
vn 0.000000 0.000000 1.000000
vn 0.000000 0.000000 1.000000
vn 0.000000 0.000000 1.000000
vn -1.000000 0.000000 0.000000
vn -1.000000 0.000000 0.000000
vn -1.000000 0.000000 0.000000
vn -1.000000 0.000000 0.000000
vn 0.000000 0.000000 -1.000000
vn 0.000000 0.000000 -1.000000
vn 0.000000 0.000000 -1.000000
vn 0.000000 0.000000 -1.000000
vn 1.000000 0.000000 0.000000
vn 1.000000 0.000000 0.000000
vn 1.000000 0.000000 0.000000
vn 1.000000 0.000000 0.000000
s 1
g pCube75
usemtl phong5SG
f 59/93/177 60/94/178 70/112/179 67/107/180
s off
f 61/95/181 62/96/182 64/98/183 63/97/184
f 68/109/185 69/110/186 66/100/187 65/99/188
f 65/99/189 66/100/190 60/102/191 59/101/192
s 2
f 60/94/193 66/103/194 69/111/195 70/112/196
s 3
f 65/105/197 59/93/198 67/107/199 68/108/200
f 68/108/200 67/107/199 61/95/201 63/106/202
s off
f 71/113/203 72/114/204 73/115/205 74/116/206
s 2
f 70/112/196 69/111/195 64/104/207 62/96/208
s 1
f 67/107/180 70/112/179 62/96/209 61/95/210
s 4
f 63/97/211 64/98/212 76/118/213 77/119/214
s 5
f 64/98/215 69/110/216 75/117/217 76/118/218
s off
f 69/110/219 68/109/220 78/120/221 75/117/222
s 6
f 68/109/223 63/97/224 77/119/225 78/120/226
s 5
f 76/118/218 75/117/217 73/115/227 72/114/228
s 4
f 77/119/214 76/118/213 72/114/229 71/113/230
s 6
f 78/120/226 77/119/225 71/113/231 74/116/232
s off
f 80/121/233 79/122/234 81/123/235 82/124/236
f 75/117/237 78/120/238 79/122/239 80/121/240
f 78/120/241 74/116/242 81/123/243 79/122/244
f 74/116/245 73/115/246 82/124/247 81/123/248
f 73/115/249 75/117/250 80/121/251 82/124/252
g default
v -513.564357 294.360027 -212.311885
v 282.426327 294.360027 -212.311885
v -513.564357 311.111798 -212.311885
v 282.426327 311.111798 -212.311885
v -513.564357 311.111798 -854.368190
v 282.426327 311.111798 -854.368190
v -513.564357 294.360027 -854.368190
v 282.426327 294.360027 -854.368190
vt 0.375000 0.000000
vt 0.625000 0.000000
vt 0.375000 0.250000
vt 0.625000 0.250000
vt 0.375000 0.500000
vt 0.625000 0.500000
vt 0.375000 0.750000
vt 0.625000 0.750000
vt 0.375000 1.000000
vt 0.625000 1.000000
vt 0.875000 0.000000
vt 0.875000 0.250000
vt 0.125000 0.000000
vt 0.125000 0.250000
vn 0.000000 0.000000 1.000000
vn 0.000000 0.000000 1.000000
vn 0.000000 0.000000 1.000000
vn 0.000000 0.000000 1.000000
vn 0.000000 1.000000 0.000000
vn 0.000000 1.000000 0.000000
vn 0.000000 1.000000 0.000000
vn 0.000000 1.000000 0.000000
vn 0.000000 0.000000 -1.000000
vn 0.000000 0.000000 -1.000000
vn 0.000000 0.000000 -1.000000
vn 0.000000 0.000000 -1.000000
vn 0.000000 -1.000000 0.000000
vn 0.000000 -1.000000 0.000000
vn 0.000000 -1.000000 0.000000
vn 0.000000 -1.000000 0.000000
vn 1.000000 0.000000 0.000000
vn 1.000000 0.000000 0.000000
vn 1.000000 0.000000 0.000000
vn 1.000000 0.000000 0.000000
vn -1.000000 0.000000 0.000000
vn -1.000000 0.000000 0.000000
vn -1.000000 0.000000 0.000000
vn -1.000000 0.000000 0.000000
s off
g pCube49
usemtl phong5SG
f 83/125/253 84/126/254 86/128/255 85/127/256
f 85/127/257 86/128/258 88/130/259 87/129/260
f 87/129/261 88/130/262 90/132/263 89/131/264
f 89/131/265 90/132/266 84/134/267 83/133/268
f 84/126/269 90/135/270 88/136/271 86/128/272
f 89/137/273 83/125/274 85/127/275 87/138/276
g default
v 236.702258 23.112524 525.709636
v 284.505596 23.112524 525.709636
v 236.702258 618.248288 525.709636
v 284.505596 618.248288 525.709636
v 236.702258 618.248288 444.285513
v 284.505596 618.248288 444.285513
v 236.702258 23.112524 444.285513
v 284.505596 23.112524 444.285513
vt 0.375000 0.000000
vt 0.625000 0.000000
vt 0.375000 0.250000
vt 0.625000 0.250000
vt 0.375000 0.500000
vt 0.625000 0.500000
vt 0.375000 0.750000
vt 0.625000 0.750000
vt 0.375000 1.000000
vt 0.625000 1.000000
vt 0.875000 0.000000
vt 0.875000 0.250000
vt 0.125000 0.000000
vt 0.125000 0.250000
vn 0.000000 0.000000 1.000000
vn 0.000000 0.000000 1.000000
vn 0.000000 0.000000 1.000000
vn 0.000000 0.000000 1.000000
vn 0.000000 1.000000 0.000000
vn 0.000000 1.000000 0.000000
vn 0.000000 1.000000 0.000000
vn 0.000000 1.000000 0.000000
vn 0.000000 0.000000 -1.000000
vn 0.000000 0.000000 -1.000000
vn 0.000000 0.000000 -1.000000
vn 0.000000 0.000000 -1.000000
vn 0.000000 -1.000000 0.000000
vn 0.000000 -1.000000 0.000000
vn 0.000000 -1.000000 0.000000
vn 0.000000 -1.000000 0.000000
vn 1.000000 0.000000 0.000000
vn 1.000000 0.000000 0.000000
vn 1.000000 0.000000 0.000000
vn 1.000000 0.000000 0.000000
vn -1.000000 0.000000 0.000000
vn -1.000000 0.000000 0.000000
vn -1.000000 0.000000 0.000000
vn -1.000000 0.000000 0.000000
s off
g pCube26
usemtl phong5SG
f 91/139/277 92/140/278 94/142/279 93/141/280
f 93/141/281 94/142/282 96/144/283 95/143/284
f 95/143/285 96/144/286 98/146/287 97/145/288
f 97/145/289 98/146/290 92/148/291 91/147/292
f 92/140/293 98/149/294 96/150/295 94/142/296
f 97/151/297 91/139/298 93/141/299 95/152/300
