{
  "accessors": [
    {
      "bufferView": 0,
      "componentType": 5125,
      "count": 77232,
      "type": "SCALAR"
    },
    {
      "bufferView": 1,
      "componentType": 5126,
      "count": 14458,
      "max": [
        -169.466201782227,
        48.3843994140625,
        18.9864978790283
      ],
      "min": [
        -306.957214355469,
        0.089599609375,
        -100.103500366211
      ],
      "type": "VEC3"
    },
    {
      "bufferView": 2,
      "componentType": 5126,
      "count": 14458,
      "type": "VEC3"
    },
    {
      "bufferView": 3,
      "componentType": 5126,
      "count": 14458,
      "type": "VEC2"
    },
    {
      "bufferView": 4,
      "componentType": 5125,
      "count": 60960,
      "type": "SCALAR"
    },
    {
      "bufferView": 5,
      "componentType": 5126,
      "count": 11574,
      "max": [
        -51.8783988952637,
        48.3059005737305,
        19.1367988586426
      ],
      "min": [
        -171.800201416016,
        0.111602783203125,
        -100.040100097656
      ],
      "type": "VEC3"
    },
    {
      "bufferView": 6,
      "componentType": 5126,
      "count": 11574,
      "type": "VEC3"
    },
    {
      "bufferView": 7,
      "componentType": 5126,
      "count": 11574,
      "type": "VEC2"
    },
    {
      "bufferView": 8,
      "componentType": 5125,
      "count": 79200,
      "type": "SCALAR"
    },
    {
      "bufferView": 9,
      "componentType": 5126,
      "count": 14782,
      "max": [
        64.7368011474609,
        48.3843994140625,
        18.5916976928711
      ],
      "min": [
        -53.6854019165039,
        0.111602783203125,
        -99.9843978881836
      ],
      "type": "VEC3"
    },
    {
      "bufferView": 10,
      "componentType": 5126,
      "count": 14782,
      "type": "VEC3"
    },
    {
      "bufferView": 11,
      "componentType": 5126,
      "count": 14782,
      "type": "VEC2"
    },
    {
      "bufferView": 12,
      "componentType": 5125,
      "count": 60960,
      "type": "SCALAR"
    },
    {
      "bufferView": 13,
      "componentType": 5126,
      "count": 11577,
      "max": [
        180.991500854492,
        48.3059005737305,
        17.8250980377197
      ],
      "min": [
        64.3001937866211,
        0.111602783203125,
        -98.880989074707
      ],
      "type": "VEC3"
    },
    {
      "bufferView": 14,
      "componentType": 5126,
      "count": 11577,
      "type": "VEC3"
    },
    {
      "bufferView": 15,
      "componentType": 5126,
      "count": 11577,
      "type": "VEC2"
    },
    {
      "bufferView": 16,
      "componentType": 5125,
      "count": 60960,
      "type": "SCALAR"
    },
    {
      "bufferView": 17,
      "componentType": 5126,
      "count": 11581,
      "max": [
        224.26220703125,
        48.3059005737305,
        138.075500488281
      ],
      "min": [
        104.948608398438,
        0.111602783203125,
        19.7171974182129
      ],
      "type": "VEC3"
    },
    {
      "bufferView": 18,
      "componentType": 5126,
      "count": 11581,
      "type": "VEC3"
    },
    {
      "bufferView": 19,
      "componentType": 5126,
      "count": 11581,
      "type": "VEC2"
    },
    {
      "bufferView": 20,
      "componentType": 5125,
      "count": 21540,
      "type": "SCALAR"
    },
    {
      "bufferView": 21,
      "componentType": 5126,
      "count": 4153,
      "max": [
        -171.881698608398,
        86.2910995483398,
        14.0162982940674
      ],
      "min": [
        -219.652481079102,
        43.882999420166,
        -91.5547943115234
      ],
      "type": "VEC3"
    },
    {
      "bufferView": 22,
      "componentType": 5126,
      "count": 4153,
      "type": "VEC3"
    },
    {
      "bufferView": 23,
      "componentType": 5126,
      "count": 4153,
      "type": "VEC2"
    },
    {
      "bufferView": 24,
      "componentType": 5125,
      "count": 21540,
      "type": "SCALAR"
    },
    {
      "bufferView": 25,
      "componentType": 5126,
      "count": 4155,
      "max": [
        -53.9360008239746,
        84.6786956787109,
        -48.8703994750977
      ],
      "min": [
        -173.688507080078,
        42.2266006469727,
        -96.6410903930664
      ],
      "type": "VEC3"
    },
    {
      "bufferView": 26,
      "componentType": 5126,
      "count": 4155,
      "type": "VEC3"
    },
    {
      "bufferView": 27,
      "componentType": 5126,
      "count": 4155,
      "type": "VEC2"
    },
    {
      "bufferView": 28,
      "componentType": 5125,
      "count": 26196,
      "type": "SCALAR"
    },
    {
      "bufferView": 29,
      "componentType": 5126,
      "count": 4958,
      "max": [
        178.225799560547,
        84.6786956787109,
        -50.0449981689453
      ],
      "min": [
        66.284797668457,
        41.1125984191895,
        -98.0001907348633
      ],
      "type": "VEC3"
    },
    {
      "bufferView": 30,
      "componentType": 5126,
      "count": 4958,
      "type": "VEC3"
    },
    {
      "bufferView": 31,
      "componentType": 5126,
      "count": 4958,
      "type": "VEC2"
    },
    {
      "bufferView": 32,
      "componentType": 5125,
      "count": 21600,
      "type": "SCALAR"
    },
    {
      "bufferView": 33,
      "componentType": 5126,
      "count": 4158,
      "max": [
        178.804901123047,
        78.6072998046875,
        10.8918981552124
      ],
      "min": [
        139.575180053711,
        44.8772010803223,
        -50.334098815918
      ],
      "type": "VEC3"
    },
    {
      "bufferView": 34,
      "componentType": 5126,
      "count": 4158,
      "type": "VEC3"
    },
    {
      "bufferView": 35,
      "componentType": 5126,
      "count": 4158,
      "type": "VEC2"
    },
    {
      "bufferView": 36,
      "componentType": 5125,
      "count": 556800,
      "type": "SCALAR"
    },
    {
      "bufferView": 37,
      "componentType": 5126,
      "count": 95830,
      "max": [
        -72.4266967773438,
        99.8166961669922,
        -35.9049987792969
      ],
      "min": [
        -147.567993164063,
        46.0266990661621,
        -58.7636947631836
      ],
      "type": "VEC3"
    },
    {
      "bufferView": 38,
      "componentType": 5126,
      "count": 95830,
      "type": "VEC3"
    },
    {
      "bufferView": 39,
      "componentType": 5126,
      "count": 95830,
      "type": "VEC2"
    },
    {
      "bufferView": 40,
      "componentType": 5125,
      "count": 129600,
      "type": "SCALAR"
    },
    {
      "bufferView": 41,
      "componentType": 5126,
      "count": 23378,
      "max": [
        -70.8651962280273,
        87.2938995361328,
        -17.3521022796631
      ],
      "min": [
        -126.222595214844,
        46.9914016723633,
        -42.7681045532227
      ],
      "type": "VEC3"
    },
    {
      "bufferView": 42,
      "componentType": 5126,
      "count": 23378,
      "type": "VEC3"
    },
    {
      "bufferView": 43,
      "componentType": 5126,
      "count": 23378,
      "type": "VEC2"
    },
    {
      "bufferView": 44,
      "componentType": 5125,
      "count": 556800,
      "type": "SCALAR"
    },
    {
      "bufferView": 45,
      "componentType": 5126,
      "count": 96015,
      "max": [
        142.10139465332,
        97.7376022338867,
        -35.9011001586914
      ],
      "min": [
        66.9067001342773,
        43.646900177002,
        -58.7642974853516
      ],
      "type": "VEC3"
    },
    {
      "bufferView": 46,
      "componentType": 5126,
      "count": 96015,
      "type": "VEC3"
    },
    {
      "bufferView": 47,
      "componentType": 5126,
      "count": 96015,
      "type": "VEC2"
    },
    {
      "bufferView": 48,
      "componentType": 5125,
      "count": 129600,
      "type": "SCALAR"
    },
    {
      "bufferView": 49,
      "componentType": 5126,
      "count": 23451,
      "max": [
        140.245193481445,
        87.3179931640625,
        -15.3707027435303
      ],
      "min": [
        84.8696899414063,
        47.6747016906738,
        -42.768798828125
      ],
      "type": "VEC3"
    },
    {
      "bufferView": 50,
      "componentType": 5126,
      "count": 23451,
      "type": "VEC3"
    },
    {
      "bufferView": 51,
      "componentType": 5126,
      "count": 23451,
      "type": "VEC2"
    },
    {
      "bufferView": 52,
      "componentType": 5125,
      "count": 556800,
      "type": "SCALAR"
    },
    {
      "bufferView": 53,
      "componentType": 5126,
      "count": 96039,
      "max": [
        -208.765197753906,
        96.3808975219727,
        -17.1578960418701
      ],
      "min": [
        -247.483184814453,
        45.6938018798828,
        -92.5786972045898
      ],
      "type": "VEC3"
    },
    {
      "bufferView": 54,
      "componentType": 5126,
      "count": 96039,
      "type": "VEC3"
    },
    {
      "bufferView": 55,
      "componentType": 5126,
      "count": 96039,
      "type": "VEC2"
    }
  ],
  "asset": {
    "generator": "Substance Painter 7.1.0",
    "version": "2.0"
  },
  "bufferViews": [
    {
      "buffer": 0,
      "byteLength": 308928,
      "target": 34963
    },
    {
      "buffer": 0,
      "byteLength": 173496,
      "byteOffset": 308928,
      "target": 34962
    },
    {
      "buffer": 0,
      "byteLength": 173496,
      "byteOffset": 482424,
      "target": 34962
    },
    {
      "buffer": 0,
      "byteLength": 115664,
      "byteOffset": 655920,
      "target": 34962
    },
    {
      "buffer": 0,
      "byteLength": 243840,
      "byteOffset": 771584,
      "target": 34963
    },
    {
      "buffer": 0,
      "byteLength": 138888,
      "byteOffset": 1015424,
      "target": 34962
    },
    {
      "buffer": 0,
      "byteLength": 138888,
      "byteOffset": 1154312,
      "target": 34962
    },
    {
      "buffer": 0,
      "byteLength": 92592,
      "byteOffset": 1293200,
      "target": 34962
    },
    {
      "buffer": 0,
      "byteLength": 316800,
      "byteOffset": 1385792,
      "target": 34963
    },
    {
      "buffer": 0,
      "byteLength": 177384,
      "byteOffset": 1702592,
      "target": 34962
    },
    {
      "buffer": 0,
      "byteLength": 177384,
      "byteOffset": 1879976,
      "target": 34962
    },
    {
      "buffer": 0,
      "byteLength": 118256,
      "byteOffset": 2057360,
      "target": 34962
    },
    {
      "buffer": 0,
      "byteLength": 243840,
      "byteOffset": 2175616,
      "target": 34963
    },
    {
      "buffer": 0,
      "byteLength": 138924,
      "byteOffset": 2419456,
      "target": 34962
    },
    {
      "buffer": 0,
      "byteLength": 138924,
      "byteOffset": 2558380,
      "target": 34962
    },
    {
      "buffer": 0,
      "byteLength": 92616,
      "byteOffset": 2697304,
      "target": 34962
    },
    {
      "buffer": 0,
      "byteLength": 243840,
      "byteOffset": 2789920,
      "target": 34963
    },
    {
      "buffer": 0,
      "byteLength": 138972,
      "byteOffset": 3033760,
      "target": 34962
    },
    {
      "buffer": 0,
      "byteLength": 138972,
      "byteOffset": 3172732,
      "target": 34962
    },
    {
      "buffer": 0,
      "byteLength": 92648,
      "byteOffset": 3311704,
      "target": 34962
    },
    {
      "buffer": 0,
      "byteLength": 86160,
      "byteOffset": 3404352,
      "target": 34963
    },
    {
      "buffer": 0,
      "byteLength": 49836,
      "byteOffset": 3490512,
      "target": 34962
    },
    {
      "buffer": 0,
      "byteLength": 49836,
      "byteOffset": 3540348,
      "target": 34962
    },
    {
      "buffer": 0,
      "byteLength": 33224,
      "byteOffset": 3590184,
      "target": 34962
    },
    {
      "buffer": 0,
      "byteLength": 86160,
      "byteOffset": 3623408,
      "target": 34963
    },
    {
      "buffer": 0,
      "byteLength": 49860,
      "byteOffset": 3709568,
      "target": 34962
    },
    {
      "buffer": 0,
      "byteLength": 49860,
      "byteOffset": 3759428,
      "target": 34962
    },
    {
      "buffer": 0,
      "byteLength": 33240,
      "byteOffset": 3809288,
      "target": 34962
    },
    {
      "buffer": 0,
      "byteLength": 104784,
      "byteOffset": 3842528,
      "target": 34963
    },
    {
      "buffer": 0,
      "byteLength": 59496,
      "byteOffset": 3947312,
      "target": 34962
    },
    {
      "buffer": 0,
      "byteLength": 59496,
      "byteOffset": 4006808,
      "target": 34962
    },
    {
      "buffer": 0,
      "byteLength": 39664,
      "byteOffset": 4066304,
      "target": 34962
    },
    {
      "buffer": 0,
      "byteLength": 86400,
      "byteOffset": 4105968,
      "target": 34963
    },
    {
      "buffer": 0,
      "byteLength": 49896,
      "byteOffset": 4192368,
      "target": 34962
    },
    {
      "buffer": 0,
      "byteLength": 49896,
      "byteOffset": 4242264,
      "target": 34962
    },
    {
      "buffer": 0,
      "byteLength": 33264,
      "byteOffset": 4292160,
      "target": 34962
    },
    {
      "buffer": 0,
      "byteLength": 2227200,
      "byteOffset": 4325424,
      "target": 34963
    },
    {
      "buffer": 0,
      "byteLength": 1149960,
      "byteOffset": 6552624,
      "target": 34962
    },
    {
      "buffer": 0,
      "byteLength": 1149960,
      "byteOffset": 7702584,
      "target": 34962
    },
    {
      "buffer": 0,
      "byteLength": 766640,
      "byteOffset": 8852544,
      "target": 34962
    },
    {
      "buffer": 0,
      "byteLength": 518400,
      "byteOffset": 9619184,
      "target": 34963
    },
    {
      "buffer": 0,
      "byteLength": 280536,
      "byteOffset": 10137584,
      "target": 34962
    },
    {
      "buffer": 0,
      "byteLength": 280536,
      "byteOffset": 10418120,
      "target": 34962
    },
    {
      "buffer": 0,
      "byteLength": 187024,
      "byteOffset": 10698656,
      "target": 34962
    },
    {
      "buffer": 0,
      "byteLength": 2227200,
      "byteOffset": 10885680,
      "target": 34963
    },
    {
      "buffer": 0,
      "byteLength": 1152180,
      "byteOffset": 13112880,
      "target": 34962
    },
    {
      "buffer": 0,
      "byteLength": 1152180,
      "byteOffset": 14265060,
      "target": 34962
    },
    {
      "buffer": 0,
      "byteLength": 768120,
      "byteOffset": 15417240,
      "target": 34962
    },
    {
      "buffer": 0,
      "byteLength": 518400,
      "byteOffset": 16185360,
      "target": 34963
    },
    {
      "buffer": 0,
      "byteLength": 281412,
      "byteOffset": 16703760,
      "target": 34962
    },
    {
      "buffer": 0,
      "byteLength": 281412,
      "byteOffset": 16985172,
      "target": 34962
    },
    {
      "buffer": 0,
      "byteLength": 187608,
      "byteOffset": 17266584,
      "target": 34962
    },
    {
      "buffer": 0,
      "byteLength": 2227200,
      "byteOffset": 17454192,
      "target": 34963
    },
    {
      "buffer": 0,
      "byteLength": 1152468,
      "byteOffset": 19681392,
      "target": 34962
    },
    {
      "buffer": 0,
      "byteLength": 1152468,
      "byteOffset": 20833860,
      "target": 34962
    },
    {
      "buffer": 0,
      "byteLength": 768312,
      "byteOffset": 21986328,
      "target": 34962
    }
  ],
  "buffers": [
    {
      "byteLength": 22754640,
      "uri": "sofa.bin"
    }
  ],
  "images": [
    {
      "uri": "wire_088177027_baseColor.png"
    },
    {
      "uri": "wire_088177027_occlusionRoughnessMetallic.png"
    },
    {
      "uri": "wire_088177027_normal.png"
    },
    {
      "uri": "wire_176026026_baseColor.png"
    },
    {
      "uri": "wire_176026026_occlusionRoughnessMetallic.png"
    },
    {
      "uri": "wire_176026026_normal.png"
    },
    {
      "uri": "wire_184228153_baseColor.png"
    },
    {
      "uri": "wire_184228153_occlusionRoughnessMetallic.png"
    },
    {
      "uri": "wire_184228153_normal.png"
    }
  ],
  "materials": [
    {
      "alphaMode": "OPAQUE",
      "name": "wire_088177027",
      "normalTexture": {
        "index": 2
      },
      "occlusionTexture": {
        "index": 1
      },
      "pbrMetallicRoughness": {
        "baseColorTexture": {
          "index": 0
        },
        "metallicRoughnessTexture": {
          "index": 1
        }
      }
    },
    {
      "alphaMode": "OPAQUE",
      "name": "wire_176026026",
      "normalTexture": {
        "index": 5
      },
      "occlusionTexture": {
        "index": 4
      },
      "pbrMetallicRoughness": {
        "baseColorTexture": {
          "index": 3
        },
        "metallicRoughnessTexture": {
          "index": 4
        }
      }
    },
    {
      "alphaMode": "OPAQUE",
      "name": "wire_184228153",
      "normalTexture": {
        "index": 8
      },
      "occlusionTexture": {
        "index": 7
      },
      "pbrMetallicRoughness": {
        "baseColorTexture": {
          "index": 6
        },
        "metallicRoughnessTexture": {
          "index": 7
        }
      }
    }
  ],
  "meshes": [
    {
      "name": "Box001",
      "primitives": [
        {
          "attributes": {
            "NORMAL": 2,
            "POSITION": 1,
            "TEXCOORD_0": 3
          },
          "indices": 0,
          "material": 1,
          "mode": 4
        }
      ]
    },
    {
      "name": "Box003",
      "primitives": [
        {
          "attributes": {
            "NORMAL": 6,
            "POSITION": 5,
            "TEXCOORD_0": 7
          },
          "indices": 4,
          "material": 1,
          "mode": 4
        }
      ]
    },
    {
      "name": "Box004",
      "primitives": [
        {
          "attributes": {
            "NORMAL": 10,
            "POSITION": 9,
            "TEXCOORD_0": 11
          },
          "indices": 8,
          "material": 1,
          "mode": 4
        }
      ]
    },
    {
      "name": "Box005",
      "primitives": [
        {
          "attributes": {
            "NORMAL": 14,
            "POSITION": 13,
            "TEXCOORD_0": 15
          },
          "indices": 12,
          "material": 1,
          "mode": 4
        }
      ]
    },
    {
      "name": "Box006",
      "primitives": [
        {
          "attributes": {
            "NORMAL": 18,
            "POSITION": 17,
            "TEXCOORD_0": 19
          },
          "indices": 16,
          "material": 1,
          "mode": 4
        }
      ]
    },
    {
      "name": "Box012",
      "primitives": [
        {
          "attributes": {
            "NORMAL": 22,
            "POSITION": 21,
            "TEXCOORD_0": 23
          },
          "indices": 20,
          "material": 2,
          "mode": 4
        }
      ]
    },
    {
      "name": "Box022",
      "primitives": [
        {
          "attributes": {
            "NORMAL": 26,
            "POSITION": 25,
            "TEXCOORD_0": 27
          },
          "indices": 24,
          "material": 2,
          "mode": 4
        }
      ]
    },
    {
      "name": "Box023",
      "primitives": [
        {
          "attributes": {
            "NORMAL": 30,
            "POSITION": 29,
            "TEXCOORD_0": 31
          },
          "indices": 28,
          "material": 2,
          "mode": 4
        }
      ]
    },
    {
      "name": "Box024",
      "primitives": [
        {
          "attributes": {
            "NORMAL": 34,
            "POSITION": 33,
            "TEXCOORD_0": 35
          },
          "indices": 32,
          "material": 2,
          "mode": 4
        }
      ]
    },
    {
      "name": "Box028",
      "primitives": [
        {
          "attributes": {
            "NORMAL": 38,
            "POSITION": 37,
            "TEXCOORD_0": 39
          },
          "indices": 36,
          "material": 0,
          "mode": 4
        }
      ]
    },
    {
      "name": "Box029",
      "primitives": [
        {
          "attributes": {
            "NORMAL": 42,
            "POSITION": 41,
            "TEXCOORD_0": 43
          },
          "indices": 40,
          "material": 0,
          "mode": 4
        }
      ]
    },
    {
      "name": "Box030",
      "primitives": [
        {
          "attributes": {
            "NORMAL": 46,
            "POSITION": 45,
            "TEXCOORD_0": 47
          },
          "indices": 44,
          "material": 0,
          "mode": 4
        }
      ]
    },
    {
      "name": "Box031",
      "primitives": [
        {
          "attributes": {
            "NORMAL": 50,
            "POSITION": 49,
            "TEXCOORD_0": 51
          },
          "indices": 48,
          "material": 0,
          "mode": 4
        }
      ]
    },
    {
      "name": "Box032",
      "primitives": [
        {
          "attributes": {
            "NORMAL": 54,
            "POSITION": 53,
            "TEXCOORD_0": 55
          },
          "indices": 52,
          "material": 0,
          "mode": 4
        }
      ]
    }
  ],
  "nodes": [
    {
      "children": [
        1,
        3,
        5,
        7,
        9,
        11,
        13,
        15,
        17,
        19,
        21,
        23,
        25,
        27
      ],
      "name": "uploads_files_2430142_SofaSollos.obj"
    },
    {
      "children": [
        2
      ],
      "name": "Box001"
    },
    {
      "mesh": 0,
      "name": "Box001"
    },
    {
      "children": [
        4
      ],
      "name": "Box003"
    },
    {
      "mesh": 1,
      "name": "Box003"
    },
    {
      "children": [
        6
      ],
      "name": "Box004"
    },
    {
      "mesh": 2,
      "name": "Box004"
    },
    {
      "children": [
        8
      ],
      "name": "Box005"
    },
    {
      "mesh": 3,
      "name": "Box005"
    },
    {
      "children": [
        10
      ],
      "name": "Box006"
    },
    {
      "mesh": 4,
      "name": "Box006"
    },
    {
      "children": [
        12
      ],
      "name": "Box012"
    },
    {
      "mesh": 5,
      "name": "Box012"
    },
    {
      "children": [
        14
      ],
      "name": "Box022"
    },
    {
      "mesh": 6,
      "name": "Box022"
    },
    {
      "children": [
        16
      ],
      "name": "Box023"
    },
    {
      "mesh": 7,
      "name": "Box023"
    },
    {
      "children": [
        18
      ],
      "name": "Box024"
    },
    {
      "mesh": 8,
      "name": "Box024"
    },
    {
      "children": [
        20
      ],
      "name": "Box028"
    },
    {
      "mesh": 9,
      "name": "Box028"
    },
    {
      "children": [
        22
      ],
      "name": "Box029"
    },
    {
      "mesh": 10,
      "name": "Box029"
    },
    {
      "children": [
        24
      ],
      "name": "Box030"
    },
    {
      "mesh": 11,
      "name": "Box030"
    },
    {
      "children": [
        26
      ],
      "name": "Box031"
    },
    {
      "mesh": 12,
      "name": "Box031"
    },
    {
      "children": [
        28
      ],
      "name": "Box032"
    },
    {
      "mesh": 13,
      "name": "Box032"
    }
  ],
  "samplers": [
    {
      "magFilter": 9729,
      "minFilter": 9985,
      "wrapS": 10497,
      "wrapT": 10497
    }
  ],
  "scene": 0,
  "scenes": [
    {
      "name": "Scene",
      "nodes": [
        0
      ]
    }
  ],
  "textures": [
    {
      "sampler": 0,
      "source": 0
    },
    {
      "sampler": 0,
      "source": 1
    },
    {
      "sampler": 0,
      "source": 2
    },
    {
      "sampler": 0,
      "source": 3
    },
    {
      "sampler": 0,
      "source": 4
    },
    {
      "sampler": 0,
      "source": 5
    },
    {
      "sampler": 0,
      "source": 6
    },
    {
      "sampler": 0,
      "source": 7
    },
    {
      "sampler": 0,
      "source": 8
    }
  ]
}